<?xml version="1.0" encoding="UTF-8" standalone="no"?>
<!DOCTYPE svg PUBLIC "-//W3C//DTD SVG 1.1//EN" "http://www.w3.org/Graphics/SVG/1.1/DTD/svg11.dtd">
<svg width="100%" height="100%" viewBox="0 0 3249 300" version="1.1" xmlns="http://www.w3.org/2000/svg" xmlns:xlink="http://www.w3.org/1999/xlink" xml:space="preserve" xmlns:serif="http://www.serif.com/" style="fill-rule:evenodd;clip-rule:evenodd;stroke-linejoin:round;stroke-miterlimit:2;">
    <g transform="matrix(1,0,0,1,-1083.1,-741.499)">
        <g id="Full-Logo" serif:id="Full Logo" transform="matrix(1,0,0,1,-378.452,-20.5238)">
            <g transform="matrix(1,0,0,1,2113.43,762.015)">
                <path d="M231.25,212.5L31.25,212.5C20.913,212.5 12.5,220.913 12.5,231.25L12.5,293.75C12.5,297.179 15.321,300 18.75,300L243.75,300C247.179,300 250,297.179 250,293.75L250,231.25C250,220.913 241.587,212.5 231.25,212.5Z" style="fill:rgb(55,48,163);fill-rule:nonzero;"/>
                <path d="M285.675,39.325L248.175,1.825C245.751,-0.599 241.762,-0.599 239.337,1.825L201.837,39.325C199.414,41.749 199.414,45.738 201.837,48.162L239.337,85.662C241.764,88.076 245.741,88.082 248.175,85.675L285.675,48.175C288.093,45.743 288.093,41.757 285.675,39.325Z" style="fill:rgb(55,48,163);fill-rule:nonzero;"/>
                <path d="M231.25,162.5C227.821,162.5 225,159.679 225,156.25C225,146.1 223.3,135.975 219.963,126.125C219.744,125.479 219.632,124.801 219.632,124.119C219.632,120.687 222.456,117.863 225.888,117.863C228.562,117.863 230.955,119.579 231.813,122.113C235.588,133.25 237.5,144.738 237.5,156.25C237.5,159.679 234.679,162.5 231.25,162.5Z" style="fill:rgb(55,48,163);fill-rule:nonzero;"/>
                <path d="M241.925,70.575L216.925,45.575C214.501,43.151 210.512,43.151 208.087,45.575L176.862,76.8L176.825,76.825C175.662,77.998 175.008,79.584 175.008,81.236C175.008,83.967 176.794,86.397 179.4,87.213C182.725,89.888 193.15,100.938 201.587,110.4C202.725,111.687 204.346,112.448 206.062,112.5L206.25,112.5C207.912,112.5 209.5,111.837 210.675,110.675L241.925,79.425C244.343,76.993 244.343,73.007 241.925,70.575Z" style="fill:rgb(55,48,163);fill-rule:nonzero;"/>
                <path d="M231.25,150L199.725,150C196.677,117.115 170.385,90.823 137.5,87.775L137.5,63.625L162.35,67.775C162.698,67.835 163.051,67.865 163.405,67.865C166.833,67.865 169.655,65.043 169.655,61.615C169.655,58.934 167.93,56.538 165.388,55.688C154.396,51.937 142.864,50.016 131.25,50C72.663,50 25,97.662 25,156.25L25,193.75C25,197.179 27.821,200 31.25,200L231.25,200C234.679,200 237.5,197.179 237.5,193.75L237.5,156.25C237.5,152.821 234.679,150 231.25,150Z" style="fill:rgb(55,48,163);fill-rule:nonzero;"/>
            </g>
            <g transform="matrix(1,0,0,1,915.653,595.919)">
                <g transform="matrix(241.667,0,0,241.667,544.204,447.523)">
                    <path d="M0.401,-0.531L0.401,-0.531ZM0.401,-0.531L0.216,-0L0.007,-0L0.294,-0.754L0.508,-0.754L0.795,-0L0.586,-0L0.401,-0.531Z" style="fill-rule:nonzero;"/>
                </g>
                <g transform="matrix(241.667,0,0,241.667,774.271,447.523)">
                    <path d="M0.275,-0.408L0.34,-0.408C0.412,-0.408 0.448,-0.439 0.448,-0.502C0.448,-0.565 0.412,-0.596 0.34,-0.596L0.275,-0.596L0.275,-0.408ZM0.275,-0L0.079,-0L0.079,-0.754L0.391,-0.754C0.476,-0.754 0.541,-0.732 0.586,-0.688C0.631,-0.644 0.653,-0.582 0.653,-0.502C0.653,-0.422 0.631,-0.36 0.586,-0.316C0.541,-0.272 0.476,-0.25 0.391,-0.25L0.275,-0.25L0.275,-0Z" style="fill-rule:nonzero;"/>
                </g>
                <g transform="matrix(241.667,0,0,241.667,974.371,447.523)">
                    <path d="M0.275,-0.408L0.34,-0.408C0.412,-0.408 0.448,-0.439 0.448,-0.502C0.448,-0.565 0.412,-0.596 0.34,-0.596L0.275,-0.596L0.275,-0.408ZM0.275,-0L0.079,-0L0.079,-0.754L0.391,-0.754C0.476,-0.754 0.541,-0.732 0.586,-0.688C0.631,-0.644 0.653,-0.582 0.653,-0.502C0.653,-0.422 0.631,-0.36 0.586,-0.316C0.541,-0.272 0.476,-0.25 0.391,-0.25L0.275,-0.25L0.275,-0Z" style="fill-rule:nonzero;"/>
                </g>
                <g transform="matrix(241.667,0,0,241.667,1529.72,447.523)">
                    <path d="M0.25,-0.377C0.25,-0.347 0.256,-0.319 0.267,-0.294C0.278,-0.269 0.294,-0.247 0.313,-0.228C0.332,-0.209 0.355,-0.195 0.381,-0.185C0.406,-0.174 0.433,-0.169 0.462,-0.169C0.491,-0.169 0.518,-0.174 0.544,-0.185C0.569,-0.195 0.592,-0.209 0.612,-0.228C0.631,-0.247 0.647,-0.269 0.658,-0.294C0.669,-0.319 0.675,-0.347 0.675,-0.377C0.675,-0.407 0.669,-0.435 0.658,-0.46C0.647,-0.485 0.631,-0.507 0.612,-0.526C0.592,-0.545 0.569,-0.559 0.544,-0.57C0.518,-0.58 0.491,-0.585 0.462,-0.585C0.433,-0.585 0.406,-0.58 0.381,-0.57C0.355,-0.559 0.332,-0.545 0.313,-0.526C0.294,-0.507 0.278,-0.485 0.267,-0.46C0.256,-0.435 0.25,-0.407 0.25,-0.377ZM0.045,-0.377C0.045,-0.433 0.055,-0.485 0.076,-0.534C0.097,-0.582 0.125,-0.624 0.162,-0.66C0.199,-0.696 0.243,-0.724 0.294,-0.745C0.345,-0.765 0.401,-0.775 0.462,-0.775C0.523,-0.775 0.579,-0.765 0.63,-0.745C0.681,-0.724 0.725,-0.696 0.763,-0.66C0.8,-0.624 0.828,-0.582 0.849,-0.534C0.87,-0.485 0.88,-0.433 0.88,-0.377C0.88,-0.321 0.87,-0.269 0.849,-0.221C0.828,-0.172 0.8,-0.13 0.763,-0.094C0.725,-0.058 0.681,-0.03 0.63,-0.01C0.579,0.011 0.523,0.021 0.462,0.021C0.401,0.021 0.345,0.011 0.294,-0.01C0.243,-0.03 0.199,-0.058 0.162,-0.094C0.125,-0.13 0.097,-0.172 0.076,-0.221C0.055,-0.269 0.045,-0.321 0.045,-0.377Z" style="fill-rule:nonzero;"/>
                </g>
                <g transform="matrix(241.667,0,0,241.667,1789.51,447.523)">
                    <path d="M0.275,-0.152L0.318,-0.152C0.367,-0.152 0.403,-0.158 0.424,-0.171C0.445,-0.184 0.456,-0.204 0.456,-0.232C0.456,-0.26 0.445,-0.28 0.424,-0.293C0.403,-0.306 0.367,-0.312 0.318,-0.312L0.275,-0.312L0.275,-0.152ZM0.275,-0.458L0.311,-0.458C0.372,-0.458 0.403,-0.482 0.403,-0.531C0.403,-0.58 0.372,-0.604 0.311,-0.604L0.275,-0.604L0.275,-0.458ZM0.079,-0.754L0.371,-0.754C0.44,-0.754 0.493,-0.737 0.529,-0.704C0.565,-0.671 0.583,-0.623 0.583,-0.56C0.583,-0.522 0.576,-0.491 0.563,-0.466C0.549,-0.44 0.528,-0.419 0.5,-0.402C0.528,-0.397 0.552,-0.389 0.572,-0.378C0.591,-0.367 0.607,-0.353 0.62,-0.337C0.632,-0.321 0.641,-0.303 0.646,-0.283C0.651,-0.263 0.654,-0.242 0.654,-0.219C0.654,-0.184 0.648,-0.152 0.636,-0.125C0.623,-0.098 0.606,-0.075 0.584,-0.056C0.561,-0.037 0.534,-0.023 0.502,-0.014C0.47,-0.005 0.434,-0 0.394,-0L0.079,-0L0.079,-0.754Z" style="fill-rule:nonzero;"/>
                </g>
                <g transform="matrix(241.667,0,0,241.667,1993,447.523)">
                    <path d="M0.493,-0.561C0.472,-0.578 0.45,-0.591 0.429,-0.6C0.408,-0.608 0.387,-0.612 0.367,-0.612C0.342,-0.612 0.321,-0.606 0.305,-0.594C0.289,-0.582 0.281,-0.566 0.281,-0.547C0.281,-0.534 0.285,-0.523 0.293,-0.514C0.301,-0.505 0.312,-0.498 0.325,-0.492C0.338,-0.485 0.352,-0.48 0.369,-0.475C0.385,-0.47 0.401,-0.465 0.417,-0.46C0.481,-0.439 0.528,-0.41 0.558,-0.375C0.587,-0.339 0.602,-0.292 0.602,-0.235C0.602,-0.196 0.596,-0.161 0.583,-0.13C0.57,-0.099 0.551,-0.072 0.526,-0.05C0.501,-0.027 0.47,-0.01 0.434,0.003C0.397,0.015 0.356,0.021 0.31,0.021C0.215,0.021 0.126,-0.007 0.045,-0.064L0.129,-0.222C0.158,-0.196 0.187,-0.177 0.216,-0.164C0.245,-0.151 0.273,-0.145 0.301,-0.145C0.333,-0.145 0.357,-0.152 0.373,-0.167C0.388,-0.182 0.396,-0.198 0.396,-0.217C0.396,-0.228 0.394,-0.238 0.39,-0.247C0.386,-0.255 0.379,-0.263 0.37,-0.27C0.361,-0.277 0.349,-0.283 0.334,-0.289C0.319,-0.295 0.3,-0.302 0.279,-0.309C0.254,-0.317 0.229,-0.326 0.205,-0.336C0.18,-0.345 0.159,-0.358 0.14,-0.374C0.121,-0.39 0.105,-0.41 0.094,-0.435C0.082,-0.459 0.076,-0.49 0.076,-0.527C0.076,-0.564 0.082,-0.598 0.095,-0.629C0.107,-0.659 0.124,-0.685 0.147,-0.707C0.169,-0.728 0.196,-0.745 0.229,-0.757C0.261,-0.769 0.297,-0.775 0.337,-0.775C0.374,-0.775 0.413,-0.77 0.454,-0.76C0.495,-0.749 0.534,-0.734 0.571,-0.714L0.493,-0.561Z" style="fill-rule:nonzero;"/>
                </g>
                <g transform="matrix(241.667,0,0,241.667,2185.36,447.523)">
                    <path d="M0.508,-0.588L0.275,-0.588L0.275,-0.462L0.495,-0.462L0.495,-0.296L0.275,-0.296L0.275,-0.166L0.508,-0.166L0.508,-0L0.079,-0L0.079,-0.754L0.508,-0.754L0.508,-0.588Z" style="fill-rule:nonzero;"/>
                </g>
                <g transform="matrix(241.667,0,0,241.667,2359.36,447.523)">
                    <path d="M0.275,-0.417L0.312,-0.417C0.351,-0.417 0.38,-0.425 0.401,-0.441C0.422,-0.457 0.432,-0.48 0.432,-0.51C0.432,-0.54 0.422,-0.563 0.401,-0.579C0.38,-0.595 0.351,-0.603 0.312,-0.603L0.275,-0.603L0.275,-0.417ZM0.706,-0L0.462,-0L0.275,-0.29L0.275,-0L0.079,-0L0.079,-0.754L0.384,-0.754C0.426,-0.754 0.463,-0.748 0.494,-0.736C0.525,-0.723 0.551,-0.706 0.572,-0.685C0.592,-0.664 0.607,-0.639 0.618,-0.611C0.628,-0.583 0.633,-0.553 0.633,-0.521C0.633,-0.464 0.619,-0.417 0.592,-0.382C0.564,-0.346 0.523,-0.322 0.469,-0.309L0.706,-0Z" style="fill-rule:nonzero;"/>
                </g>
                <g transform="matrix(241.667,0,0,241.667,2559.95,447.523)">
                    <path d="M0.213,-0.754L0.395,-0.295L0.578,-0.754L0.791,-0.754L0.473,-0L0.317,-0L0,-0.754L0.213,-0.754Z" style="fill-rule:nonzero;"/>
                </g>
                <g transform="matrix(241.667,0,0,241.667,2772.85,447.523)">
                    <path d="M0.401,-0.531L0.401,-0.531ZM0.401,-0.531L0.216,-0L0.007,-0L0.294,-0.754L0.508,-0.754L0.795,-0L0.586,-0L0.401,-0.531Z" style="fill-rule:nonzero;"/>
                </g>
                <g transform="matrix(241.667,0,0,241.667,2994.95,447.523)">
                    <path d="M0.365,-0.588L0.365,-0L0.169,-0L0.169,-0.588L0.008,-0.588L0.008,-0.754L0.526,-0.754L0.526,-0.588L0.365,-0.588Z" style="fill-rule:nonzero;"/>
                </g>
                <g transform="matrix(241.667,0,0,241.667,3158.55,447.523)">
                    <path d="M0.25,-0.377C0.25,-0.347 0.256,-0.319 0.267,-0.294C0.278,-0.269 0.294,-0.247 0.313,-0.228C0.332,-0.209 0.355,-0.195 0.381,-0.185C0.406,-0.174 0.433,-0.169 0.462,-0.169C0.491,-0.169 0.518,-0.174 0.544,-0.185C0.569,-0.195 0.592,-0.209 0.612,-0.228C0.631,-0.247 0.647,-0.269 0.658,-0.294C0.669,-0.319 0.675,-0.347 0.675,-0.377C0.675,-0.407 0.669,-0.435 0.658,-0.46C0.647,-0.485 0.631,-0.507 0.612,-0.526C0.592,-0.545 0.569,-0.559 0.544,-0.57C0.518,-0.58 0.491,-0.585 0.462,-0.585C0.433,-0.585 0.406,-0.58 0.381,-0.57C0.355,-0.559 0.332,-0.545 0.313,-0.526C0.294,-0.507 0.278,-0.485 0.267,-0.46C0.256,-0.435 0.25,-0.407 0.25,-0.377ZM0.045,-0.377C0.045,-0.433 0.055,-0.485 0.076,-0.534C0.097,-0.582 0.125,-0.624 0.162,-0.66C0.199,-0.696 0.243,-0.724 0.294,-0.745C0.345,-0.765 0.401,-0.775 0.462,-0.775C0.523,-0.775 0.579,-0.765 0.63,-0.745C0.681,-0.724 0.725,-0.696 0.763,-0.66C0.8,-0.624 0.828,-0.582 0.849,-0.534C0.87,-0.485 0.88,-0.433 0.88,-0.377C0.88,-0.321 0.87,-0.269 0.849,-0.221C0.828,-0.172 0.8,-0.13 0.763,-0.094C0.725,-0.058 0.681,-0.03 0.63,-0.01C0.579,0.011 0.523,0.021 0.462,0.021C0.401,0.021 0.345,0.011 0.294,-0.01C0.243,-0.03 0.199,-0.058 0.162,-0.094C0.125,-0.13 0.097,-0.172 0.076,-0.221C0.055,-0.269 0.045,-0.321 0.045,-0.377Z" style="fill-rule:nonzero;"/>
                </g>
                <g transform="matrix(241.667,0,0,241.667,3418.35,447.523)">
                    <path d="M0.275,-0.417L0.312,-0.417C0.351,-0.417 0.38,-0.425 0.401,-0.441C0.422,-0.457 0.432,-0.48 0.432,-0.51C0.432,-0.54 0.422,-0.563 0.401,-0.579C0.38,-0.595 0.351,-0.603 0.312,-0.603L0.275,-0.603L0.275,-0.417ZM0.706,-0L0.462,-0L0.275,-0.29L0.275,-0L0.079,-0L0.079,-0.754L0.384,-0.754C0.426,-0.754 0.463,-0.748 0.494,-0.736C0.525,-0.723 0.551,-0.706 0.572,-0.685C0.592,-0.664 0.607,-0.639 0.618,-0.611C0.628,-0.583 0.633,-0.553 0.633,-0.521C0.633,-0.464 0.619,-0.417 0.592,-0.382C0.564,-0.346 0.523,-0.322 0.469,-0.309L0.706,-0Z" style="fill-rule:nonzero;"/>
                </g>
                <g transform="matrix(241.667,0,0,241.667,3617.24,447.523)">
                    <path d="M0.261,-0.362L-0.014,-0.754L0.22,-0.754L0.36,-0.548L0.499,-0.754L0.733,-0.754L0.457,-0.362L0.457,-0L0.261,-0L0.261,-0.362Z" style="fill-rule:nonzero;"/>
                </g>
            </g>
        </g>
    </g>
</svg>
