<?xml version="1.0" encoding="UTF-8" standalone="no"?>
<!DOCTYPE svg PUBLIC "-//W3C//DTD SVG 1.1//EN" "http://www.w3.org/Graphics/SVG/1.1/DTD/svg11.dtd">
<svg width="100%" height="100%" viewBox="0 0 727 793" version="1.1" xmlns="http://www.w3.org/2000/svg" xmlns:xlink="http://www.w3.org/1999/xlink" xml:space="preserve" xmlns:serif="http://www.serif.com/" style="fill-rule:evenodd;clip-rule:evenodd;stroke-linejoin:round;stroke-miterlimit:2;">
    <g transform="matrix(1,0,0,1,-1026.11,-1682.4)">
        <g id="Mini-Logo--Light-" serif:id="Mini Logo (Light)" transform="matrix(1,0,0,1,-2315.27,-21.6585)">
            <g transform="matrix(2.64289,0,0,2.64289,3308.35,1704.04)">
                <path d="M231.25,212.5L31.25,212.5C20.913,212.5 12.5,220.913 12.5,231.25L12.5,293.75C12.5,297.179 15.321,300 18.75,300L243.75,300C247.179,300 250,297.179 250,293.75L250,231.25C250,220.913 241.587,212.5 231.25,212.5Z" style="fill:rgb(165,180,252);fill-rule:nonzero;"/>
                <path d="M285.675,39.325L248.175,1.825C245.751,-0.599 241.762,-0.599 239.337,1.825L201.837,39.325C199.414,41.749 199.414,45.738 201.837,48.162L239.337,85.662C241.764,88.076 245.741,88.082 248.175,85.675L285.675,48.175C288.093,45.743 288.093,41.757 285.675,39.325Z" style="fill:rgb(165,180,252);fill-rule:nonzero;"/>
                <path d="M231.25,162.5C227.821,162.5 225,159.679 225,156.25C225,146.1 223.3,135.975 219.963,126.125C219.744,125.479 219.632,124.801 219.632,124.119C219.632,120.687 222.456,117.863 225.888,117.863C228.562,117.863 230.955,119.579 231.813,122.113C235.588,133.25 237.5,144.738 237.5,156.25C237.5,159.679 234.679,162.5 231.25,162.5Z" style="fill:rgb(165,180,252);fill-rule:nonzero;"/>
                <path d="M241.925,70.575L216.925,45.575C214.501,43.151 210.512,43.151 208.087,45.575L176.862,76.8L176.825,76.825C175.662,77.998 175.008,79.584 175.008,81.236C175.008,83.967 176.794,86.397 179.4,87.213C182.725,89.888 193.15,100.938 201.587,110.4C202.725,111.687 204.346,112.448 206.062,112.5L206.25,112.5C207.912,112.5 209.5,111.837 210.675,110.675L241.925,79.425C244.343,76.993 244.343,73.007 241.925,70.575Z" style="fill:rgb(165,180,252);fill-rule:nonzero;"/>
                <path d="M231.25,150L199.725,150C196.677,117.115 170.385,90.823 137.5,87.775L137.5,63.625L162.35,67.775C162.698,67.835 163.051,67.865 163.405,67.865C166.833,67.865 169.655,65.043 169.655,61.615C169.655,58.934 167.93,56.538 165.388,55.688C154.396,51.937 142.864,50.016 131.25,50C72.663,50 25,97.662 25,156.25L25,193.75C25,197.179 27.821,200 31.25,200L231.25,200C234.679,200 237.5,197.179 237.5,193.75L237.5,156.25C237.5,152.821 234.679,150 231.25,150Z" style="fill:rgb(165,180,252);fill-rule:nonzero;"/>
            </g>
            <g transform="matrix(2.38699,0,0,2.38699,1063.82,1377.8)">
                <g transform="matrix(80.9046,0,0,80.9046,1010.05,449.2)">
                    <path d="M0.401,-0.531L0.401,-0.531ZM0.401,-0.531L0.216,-0L0.007,-0L0.294,-0.754L0.508,-0.754L0.795,-0L0.586,-0L0.401,-0.531Z" style="fill:rgb(53,47,161);fill-rule:nonzero;"/>
                </g>
                <g transform="matrix(80.9046,0,0,80.9046,1089.47,450.899)">
                    <path d="M0.25,-0.377C0.25,-0.347 0.256,-0.319 0.267,-0.294C0.278,-0.269 0.294,-0.247 0.313,-0.228C0.332,-0.209 0.355,-0.195 0.381,-0.185C0.406,-0.174 0.433,-0.169 0.462,-0.169C0.491,-0.169 0.518,-0.174 0.544,-0.185C0.569,-0.195 0.592,-0.209 0.612,-0.228C0.631,-0.247 0.647,-0.269 0.658,-0.294C0.669,-0.319 0.675,-0.347 0.675,-0.377C0.675,-0.407 0.669,-0.435 0.658,-0.46C0.647,-0.485 0.631,-0.507 0.612,-0.526C0.592,-0.545 0.569,-0.559 0.544,-0.57C0.518,-0.58 0.491,-0.585 0.462,-0.585C0.433,-0.585 0.406,-0.58 0.381,-0.57C0.355,-0.559 0.332,-0.545 0.313,-0.526C0.294,-0.507 0.278,-0.485 0.267,-0.46C0.256,-0.435 0.25,-0.407 0.25,-0.377ZM0.045,-0.377C0.045,-0.433 0.055,-0.485 0.076,-0.534C0.097,-0.582 0.125,-0.624 0.162,-0.66C0.199,-0.696 0.243,-0.724 0.294,-0.745C0.345,-0.765 0.401,-0.775 0.462,-0.775C0.523,-0.775 0.579,-0.765 0.63,-0.745C0.681,-0.724 0.725,-0.696 0.763,-0.66C0.8,-0.624 0.828,-0.582 0.849,-0.534C0.87,-0.485 0.88,-0.433 0.88,-0.377C0.88,-0.321 0.87,-0.269 0.849,-0.221C0.828,-0.172 0.8,-0.13 0.763,-0.094C0.725,-0.058 0.681,-0.03 0.63,-0.01C0.579,0.011 0.523,0.021 0.462,0.021C0.401,0.021 0.345,0.011 0.294,-0.01C0.243,-0.03 0.199,-0.058 0.162,-0.094C0.125,-0.13 0.097,-0.172 0.076,-0.221C0.055,-0.269 0.045,-0.321 0.045,-0.377Z" style="fill:rgb(53,47,161);fill-rule:nonzero;"/>
                </g>
            </g>
        </g>
    </g>
</svg>
